<svg width="48" height="48" xmlns="http://www.w3.org/2000/svg">
 <defs>
  <linearGradient id="rainbow">
   <stop offset="0" stop-color="rgb(255,0,0)"/>
   <stop offset="0.125" stop-color="rgb(255,128,0)"/>
   <stop offset="0.25" stop-color="rgb(255,255,0)"/>
   <stop offset="0.375" stop-color="rgb(128,255,0)"/>
   <stop offset="0.5" stop-color="rgb(0,255,0)"/>
   <stop offset="0.625" stop-color="rgb(0,240,68)"/>
   <stop offset="0.75" stop-color="rgb(0,160,168)"/>
   <stop offset="0.875" stop-color="rgb(0,0,255)"/>
   <stop offset="1" stop-color="rgb(255,0,255)"/>
  </linearGradient>
 </defs>
 <g>
  <title>background</title>
  <rect fill="none" id="canvas_background" height="50" width="50" y="-1" x="-1"/>
 </g>
 <g>
  <title>Layer 1</title>
  <ellipse ry="23" rx="23" id="svg_2" cy="24" cx="24" stroke-width="0" stroke="#1d272d" fill="#1d272d"/>
  <path id="svg_1" d="m33,29.5c-2.589,0 -4.005,-2.549 -5.374,-5.014c-1.089,-1.96 -2.215,-3.986 -3.626,-3.986c-1.412,0 -2.537,2.026 -3.626,3.986c-1.37,2.465 -2.786,5.014 -5.374,5.014c-2.65,0 -3.853,-2.706 -4.914,-5.094c-1.048,-2.36 -1.83,-3.906 -3.086,-3.906c-0.552,0 -1,-0.448 -1,-1s0.448,-1 1,-1c2.65,0 3.853,2.706 4.914,5.094c1.048,2.359 1.83,3.906 3.086,3.906c1.412,0 2.537,-2.026 3.626,-3.986c1.37,-2.465 2.786,-5.014 5.374,-5.014c2.589,0 4.005,2.549 5.374,5.014c1.089,1.96 2.215,3.986 3.626,3.986c1.256,0 2.037,-1.547 3.086,-3.906c1.061,-2.388 2.265,-5.094 4.914,-5.094c0.553,0 1,0.448 1,1s-0.447,1 -1,1c-1.256,0 -2.037,1.546 -3.086,3.906c-1.061,2.388 -2.265,5.094 -4.914,5.094z" fill="url(#rainbow)"/>
 </g>
</svg>